<?xml version="1.0" encoding="UTF-8"?>
<svg version="1.1" xmlns="http://www.w3.org/2000/svg" width="400" height="400">
<path d="M0 0 C18.42022117 14.2287936 30.01448096 33.91997742 33.125 57.125 C34.77290555 82.29095277 28.91937552 104.30663668 12.29956055 123.77880859 C-1.13609141 138.90746348 -19.86907525 148.36742659 -39.875 151.125 C-41.49894748 151.1870775 -43.12505297 151.21212041 -44.75 151.1875 C-45.53117187 151.17847656 -46.31234375 151.16945312 -47.1171875 151.16015625 C-47.98730469 151.14275391 -47.98730469 151.14275391 -48.875 151.125 C-43.94145464 164.56152216 -37.68392103 173.40510405 -24.8671875 180.1875 C-17.13349678 183.34163268 -8.10421928 182.86755948 0.125 183.125 C0.24746094 181.92488281 0.36992187 180.72476563 0.49609375 179.48828125 C2.15314207 166.38463135 10.42726386 154.43037309 20.37109375 146.04296875 C35.80698968 135.29257882 52.74659115 131.37326054 71.42675781 134.51171875 C86.6584662 138.08555929 99.09554909 147.4970907 107.875 160.25 C111.97419916 166.99600141 116.125 176.11066007 116.125 184.125 C127.345 184.125 138.565 184.125 150.125 184.125 C150.455 181.155 150.785 178.185 151.125 175.125 C155.15073203 161.33729973 164.36318911 148.90727687 176.97265625 141.92578125 C191.59414746 134.24609802 207.0305756 131.13391908 223.5078125 135 C238.89936904 139.80393551 251.30986256 149.15507076 259.55078125 163.08203125 C267.10539624 177.68512076 269.01247331 194.33796369 264.5 210.3125 C263.76593723 212.27254954 262.97603408 214.21283281 262.125 216.125 C261.7125 217.06214844 261.3 217.99929687 260.875 218.96484375 C253.26078212 234.38796122 240.91976659 243.27031738 225.16796875 249.1796875 C210.8001404 253.6431207 194.21745987 251.97737011 180.76953125 245.51171875 C166.70270028 237.63079854 155.62975757 225.9922041 151.125 210.125 C150.795 207.155 150.465 204.185 150.125 201.125 C138.905 201.125 127.685 201.125 116.125 201.125 C115.465 204.425 114.805 207.725 114.125 211.125 C113.04160658 213.90517869 111.97539384 216.43071542 110.625 219.0625 C110.27606689 219.74562256 109.92713379 220.42874512 109.56762695 221.13256836 C101.40893753 236.40074226 88.40049013 245.06894273 72.125 250.125 C55.6399086 253.62251264 38.93535905 250.92279112 24.69921875 241.89453125 C13.52305854 234.21198106 4.87479096 223.33296904 1.125 210.125 C0.69014446 207.1322797 0.37849164 204.13813172 0.125 201.125 C-1.08414063 201.17140625 -2.29328125 201.2178125 -3.5390625 201.265625 C-19.1913916 201.68779324 -31.73149092 199.40277112 -44.875 190.125 C-46.22274155 188.8062323 -47.55834566 187.47480625 -48.875 186.125 C-48.96806283 197.50456881 -49.03894815 208.88404568 -49.08224869 220.26391888 C-49.10304058 225.54921183 -49.13120332 230.83424263 -49.17675781 236.11938477 C-49.22051693 241.22874813 -49.24420011 246.3378608 -49.25450897 251.44739723 C-49.26184673 253.38766228 -49.27617426 255.32791507 -49.29792023 257.26807213 C-49.48847609 274.98910679 -47.1495336 289.3708152 -34.5625 302.9375 C-24.78876305 311.97604435 -12.87062802 315.45720022 0.125 317.125 C0.186875 315.8875 0.24875 314.65 0.3125 313.375 C1.76678334 300.70480538 8.97592653 290.58789296 18.125 282.125 C18.60066406 281.65578125 19.07632813 281.1865625 19.56640625 280.703125 C31.25269905 269.77714522 46.48144024 266.33424486 62.01953125 266.84765625 C77.9941826 267.73289216 92.47021952 275.30945481 103.125 287.125 C114.88056779 302.33808773 117.6426283 318.40313706 116.125 337.125 C113.63145495 352.2232083 104.50137501 364.83552978 92.6328125 374.0625 C77.654918 384.37369146 60.91939191 386.59172942 43.21484375 383.42578125 C40.04396302 382.53007358 37.13353528 381.46398649 34.125 380.125 C33.18785156 379.7125 32.25070313 379.3 31.28515625 378.875 C15.82941742 371.24467733 7.04037773 358.87380731 0.97265625 343.16796875 C0.09291268 340.00981097 -0.03586915 337.38625644 0.125 334.125 C-0.60203125 334.15980469 -1.3290625 334.19460938 -2.078125 334.23046875 C-18.96304793 334.68506283 -33.72363471 328.54514073 -46.4140625 317.4921875 C-58.82023372 305.55863233 -67.36896952 288.88913238 -67.96525764 271.49160957 C-67.99787973 268.27922329 -67.99862438 265.06825232 -67.98852539 261.85571289 C-67.98867142 260.63549438 -67.98881744 259.41527588 -67.9889679 258.15808105 C-67.98839267 254.83006467 -67.9833947 251.50211115 -67.97639394 248.17410588 C-67.97012139 244.68943166 -67.96955352 241.20475651 -67.96836853 237.72007751 C-67.96526669 231.12939111 -67.95706881 224.5387214 -67.94701904 217.94804233 C-67.93582222 210.4413746 -67.93033847 202.93470605 -67.92532361 195.42803204 C-67.9148852 179.99367838 -67.89730804 164.55934135 -67.875 149.125 C-68.96594971 148.97949707 -70.05689941 148.83399414 -71.1809082 148.68408203 C-87.39873455 146.22959638 -100.59572619 136.38785566 -111.875 125.125 C-112.54402344 124.46757812 -113.21304688 123.81015625 -113.90234375 123.1328125 C-130.20654927 105.90433229 -134.53218387 83.35189435 -134.19140625 60.51171875 C-133.92502693 52.89148697 -132.55869542 46.29329172 -129.875 39.125 C-129.524375 38.09890625 -129.17375 37.0728125 -128.8125 36.015625 C-125.76445976 27.8451838 -121.09255134 21.02416632 -115.875 14.125 C-115.32070312 13.38378906 -114.76640625 12.64257812 -114.1953125 11.87890625 C-86.33058013 -22.57077531 -34.56513367 -24.01571876 0 0 Z M-94.875 18.125 C-95.89013672 18.99898437 -95.89013672 18.99898437 -96.92578125 19.890625 C-108.87015572 30.93047402 -116.03710381 47.10538235 -117.078125 63.28125 C-117.36849462 83.99428275 -110.2986643 101.0774399 -96.0859375 116.00390625 C-83.07183061 128.38115259 -65.6593221 134.28685959 -47.875 134.125 C-33.85920559 133.18950002 -21.19719967 128.35258863 -9.875 120.125 C-9.24207031 119.67640625 -8.60914062 119.2278125 -7.95703125 118.765625 C5.06599617 108.63329245 13.31472646 91.90251407 15.59375 75.81640625 C17.49298231 56.45718603 12.00181005 39.65034012 0.02734375 24.46484375 C-12.18712029 10.18232231 -28.68793004 2.52449109 -47.30859375 0.80859375 C-65.0227842 0.18527944 -81.58857793 6.4588733 -94.875 18.125 Z M28.125 163.125 C20.68143877 172.33195615 15.74700963 182.07655683 16.125 194.125 C17.60466336 206.71636607 22.19596756 217.03908137 32.125 225.125 C40.75281594 231.69267318 50.8968751 234.64181547 61.75 234.125 C72.87039089 232.60188313 83.25681211 227.19012549 90.3125 218.4375 C97.0839418 208.81687231 100.1580221 198.8276647 99.125 187.125 C96.78305995 175.37297551 91.23091131 164.92315319 81.125 158.125 C63.79760225 147.92740034 43.1143101 148.53014542 28.125 163.125 Z M178.125 163.125 C170.68143877 172.33195615 165.74700963 182.07655683 166.125 194.125 C167.60466336 206.71636607 172.19596756 217.03908137 182.125 225.125 C190.75281594 231.69267318 200.8968751 234.64181547 211.75 234.125 C222.87039089 232.60188313 233.25681211 227.19012549 240.3125 218.4375 C247.0839418 208.81687231 250.1580221 198.8276647 249.125 187.125 C246.78305995 175.37297551 241.23091131 164.92315319 231.125 158.125 C213.79760225 147.92740034 193.1143101 148.53014542 178.125 163.125 Z M28.375 296.375 C20.24419406 305.17698096 16.52534578 315.06262742 15.99609375 327.04296875 C16.52940381 338.24247992 21.69230139 349.1598764 29.8984375 356.76953125 C39.64557634 364.62691868 50.69850959 368.22191593 63.125 367.125 C74.87702449 364.78305995 85.32684681 359.23091131 92.125 349.125 C98.02113209 339.10650258 100.85415317 329.1490181 98.625 317.515625 C95.15053735 304.8022503 88.33005891 295.93211371 77.125 289.125 C60.57452077 280.47302263 41.95996582 283.82592482 28.375 296.375 Z " fill="#2088FC" transform="translate(133.875,15.875)"/>
<path d="M0 0 C10.9695732 9.45186512 19.89565027 23.30302809 21.10693359 38.05615234 C21.7246248 56.64304228 19.30404848 71.46731291 6.8515625 86.13671875 C-4.29082958 97.95561321 -18.12565313 104.70458754 -34.32763672 105.24780273 C-43.79149723 105.31912226 -52.33234095 104.60292958 -61.0859375 100.70703125 C-62.02308594 100.29453125 -62.96023438 99.88203125 -63.92578125 99.45703125 C-79.38279597 91.82607868 -88.27522207 79.46174105 -94.140625 63.65234375 C-94.98980245 61.00655947 -95.61163004 58.44186788 -96.0859375 55.70703125 C-96.82199219 55.7534375 -97.55804688 55.79984375 -98.31640625 55.84765625 C-106.35594994 56.14502378 -106.35594994 56.14502378 -110.2109375 53.83203125 C-112.44363552 51.30164016 -113.02489618 50.25640312 -113.3984375 46.89453125 C-113.01429392 42.97626675 -111.79337433 41.49409858 -109.0859375 38.70703125 C-106.32141717 37.32477109 -104.0398012 37.61177738 -100.9609375 37.64453125 C-99.86523438 37.65355469 -98.76953125 37.66257812 -97.640625 37.671875 C-96.37605469 37.68927734 -96.37605469 37.68927734 -95.0859375 37.70703125 C-95.0240625 36.46953125 -94.9621875 35.23203125 -94.8984375 33.95703125 C-93.44415416 21.28683663 -86.23501097 11.16992421 -77.0859375 2.70703125 C-76.37244141 2.00320313 -76.37244141 2.00320313 -75.64453125 1.28515625 C-54.83641379 -18.16918007 -21.87825851 -16.25637689 0 0 Z M-66.8359375 16.95703125 C-74.96674344 25.75901221 -78.68559172 35.64465867 -79.21484375 47.625 C-78.68153369 58.82451117 -73.51863611 69.74190765 -65.3125 77.3515625 C-55.56536116 85.20894993 -44.51242791 88.80394718 -32.0859375 87.70703125 C-20.33391301 85.3650912 -9.88409069 79.81294256 -3.0859375 69.70703125 C2.81019459 59.68853383 5.64321567 49.73104935 3.4140625 38.09765625 C-0.06040015 25.38428155 -6.88087859 16.51414496 -18.0859375 9.70703125 C-34.63641673 1.05505388 -53.25097168 4.40795607 -66.8359375 16.95703125 Z " fill="#79B8FD" transform="translate(379.0859375,295.29296875)"/>
<path d="M0 0 C2.62475586 1.12011719 2.62475586 1.12011719 5.21484375 2.609375 C6.16786377 3.15537354 7.12088379 3.70137207 8.1027832 4.26391602 C12.66124499 6.9954591 17.16002783 9.8058427 21.625 12.6875 C23.54161764 13.92195113 25.45828491 15.15632518 27.375 16.390625 C28.31730469 16.99841797 29.25960937 17.60621094 30.23046875 18.23242188 C32.8241555 19.88777202 35.43688729 21.50529624 38.0625 23.109375 C38.8364209 23.58930908 39.6103418 24.06924316 40.40771484 24.5637207 C41.83784574 25.44979718 43.27525852 26.32427734 44.72119141 27.18432617 C49.4570556 30.15331668 51.71320024 32.86323338 54 38 C54.97528966 43.22066816 54.4454401 47.78516335 52.625 52.75 C46.56812467 61.50568713 34.25021777 66.52670952 25.2890625 71.84765625 C19.34522887 75.37948351 13.45040809 78.98945376 7.56054688 82.61035156 C6.85736328 83.04186523 6.15417969 83.47337891 5.4296875 83.91796875 C4.50518799 84.48680786 4.50518799 84.48680786 3.56201172 85.06713867 C-0.81982731 87.68405129 -4.99150242 87.41673169 -10 87 C-15.67458978 85.07278083 -19.32050871 81.35898258 -22 76 C-22.11202259 73.96935395 -22.15931948 71.93502393 -22.17700195 69.90136719 C-22.18983719 68.61953552 -22.20267242 67.33770386 -22.21589661 66.01702881 C-22.22406505 64.6103148 -22.23150858 63.20359642 -22.23828125 61.796875 C-22.24235678 61.0890815 -22.2464323 60.38128799 -22.25063133 59.6520462 C-22.27149563 55.90393872 -22.28579432 52.15586785 -22.29516602 48.40771484 C-22.30621621 44.54288483 -22.3405981 40.67863284 -22.38033772 36.81400681 C-22.40653352 33.83706622 -22.41486055 30.86026255 -22.41844749 27.88321686 C-22.42330785 26.45909991 -22.43490626 25.03498885 -22.45348549 23.6109848 C-22.47792942 21.6128688 -22.47448698 19.61447134 -22.4699707 17.61621094 C-22.47583694 16.480849 -22.48170319 15.34548706 -22.48774719 14.17572021 C-21.70905278 9.10564369 -19.15584636 6.0182456 -15.375 2.6875 C-10.42691926 -0.82824158 -5.933553 -0.72589889 0 0 Z M-5 18 C-5 34.83 -5 51.66 -5 69 C2.01266971 65.17490743 8.80155497 61.3603827 15.5 57.0625 C16.3144458 56.54397461 17.1288916 56.02544922 17.96801758 55.49121094 C19.57681036 54.46651845 21.18467692 53.44036997 22.79150391 52.41259766 C24.748225 51.16104025 26.70722433 49.91320959 28.66796875 48.66796875 C31.11361659 47.11452361 33.55769138 45.55868685 36 44 C31.18497072 39.87866138 25.84856003 36.62086919 20.5 33.25 C19.52200439 32.63108887 18.54400879 32.01217773 17.53637695 31.37451172 C6.78411489 23.1008187 6.78411489 23.1008187 -5 18 Z " fill="#2088FC" transform="translate(72,40)"/>
<path d="M0 0 C2.9375 1.4375 2.9375 1.4375 5 4 C6.05228314 7.24950327 5.94797293 9.72612628 5 13 C2.89321055 16.21244136 0.32000604 18.81166762 -2.43701172 21.47509766 C-4.22197943 23.21657037 -5.95629352 25.00184162 -7.69140625 26.79296875 C-9.00136698 28.13402212 -10.31256644 29.47386659 -11.625 30.8125 C-12.24576416 31.44687988 -12.86652832 32.08125977 -13.50610352 32.73486328 C-22.99529374 42.23284095 -22.99529374 42.23284095 -28.9375 43.75 C-33.79450053 42.56053048 -36.49574227 39.43686816 -40 36 C-40.90234375 35.20464844 -41.8046875 34.40929687 -42.734375 33.58984375 C-50.64573965 26.36010797 -50.64573965 26.36010797 -50.875 21.625 C-49.93787409 17.74262122 -49.17947507 16.33784932 -46 14 C-42.98221063 12.49110531 -41.37677363 12.49973724 -38 13 C-35.09101882 15.09279222 -32.53767209 17.4752095 -30 20 C-26.65415036 18.54957091 -24.49945964 16.72261175 -21.9609375 14.12109375 C-21.21585937 13.36505859 -20.47078125 12.60902344 -19.703125 11.83007812 C-18.93484375 11.04052734 -18.1665625 10.25097656 -17.375 9.4375 C-15.84336831 7.87152109 -14.30961805 6.30761061 -12.7734375 4.74609375 C-12.09716309 4.05185303 -11.42088867 3.3576123 -10.72412109 2.64233398 C-7.36049109 -0.56173555 -4.53962203 -0.38471373 0 0 Z " fill="#2088FC" transform="translate(362,188)"/>
<path d="M0 0 C2.9375 1.4375 2.9375 1.4375 5 4 C6.05228314 7.24950327 5.94797293 9.72612628 5 13 C2.89321055 16.21244136 0.32000604 18.81166762 -2.43701172 21.47509766 C-4.22197943 23.21657037 -5.95629352 25.00184162 -7.69140625 26.79296875 C-9.00136698 28.13402212 -10.31256644 29.47386659 -11.625 30.8125 C-12.24576416 31.44687988 -12.86652832 32.08125977 -13.50610352 32.73486328 C-22.99529374 42.23284095 -22.99529374 42.23284095 -28.9375 43.75 C-33.79450053 42.56053048 -36.49574227 39.43686816 -40 36 C-40.90234375 35.20464844 -41.8046875 34.40929687 -42.734375 33.58984375 C-50.64573965 26.36010797 -50.64573965 26.36010797 -50.875 21.625 C-49.93787409 17.74262122 -49.17947507 16.33784932 -46 14 C-42.98221063 12.49110531 -41.37677363 12.49973724 -38 13 C-35.09101882 15.09279222 -32.53767209 17.4752095 -30 20 C-26.65415036 18.54957091 -24.49945964 16.72261175 -21.9609375 14.12109375 C-21.21585938 13.36505859 -20.47078125 12.60902344 -19.703125 11.83007812 C-18.93484375 11.04052734 -18.1665625 10.25097656 -17.375 9.4375 C-15.84336831 7.87152109 -14.30961805 6.30761061 -12.7734375 4.74609375 C-12.09716309 4.05185303 -11.42088867 3.3576123 -10.72412109 2.64233398 C-7.36049109 -0.56173555 -4.53962203 -0.38471373 0 0 Z " fill="#2088FC" transform="translate(212,188)"/>
<path d="M0 0 C3.34425629 2.57250484 4.81699852 4.62748893 5.375 8.8125 C5 12 5 12 3 14.875 C-0.3425835 17.24266331 -2.06013415 17.75726358 -6.0625 17.484375 C-9.52395669 16.61901083 -11.01181405 14.85801731 -13 12 C-13.55878277 8.08852059 -13.23182354 5.28900312 -11 2 C-7.33218328 -0.44521115 -4.26546767 -0.72237759 0 0 Z " fill="#79B7FC" transform="translate(179,333)"/>
<path d="M0 0 C2.9375 2.0625 2.9375 2.0625 5 5 C5.65622237 9.08316143 5.37781677 11.22793965 3.5625 14.9375 C0.2970549 17.56578508 -1.77288504 17.66476339 -5.875 17.421875 C-8 17 -8 17 -10.5 15.3125 C-12.19063743 12.70610063 -12.84855569 11.10460835 -13 8 C-12.23355683 5.07358062 -11.37191157 3.39946058 -9.3125 1.1875 C-5.95694997 -0.53562029 -3.71982635 -0.52208089 0 0 Z " fill="#7AB8FB" transform="translate(212,333)"/>
</svg>
