<?xml version="1.0" encoding="UTF-8"?>
<svg version="1.1" xmlns="http://www.w3.org/2000/svg" width="96" height="96">
<path d="M0 0 C5.15921743 -0.22320235 10.31560509 -0.38610225 15.47851562 -0.49438477 C17.23259439 -0.53953126 18.98633651 -0.60086921 20.73925781 -0.67895508 C35.32280994 -1.31212292 35.32280994 -1.31212292 39.43505859 1.9050293 C40.99424478 4.23379239 42.01299638 6.3853158 43 9 C43.77253317 10.32385228 44.56266263 11.63769218 45.375 12.9375 C47 16 47 16 47 18 C47.66 18 48.32 18 49 18 C49.42043579 16.71077637 49.42043579 16.71077637 49.84936523 15.39550781 C50.22907471 14.27499023 50.60878418 13.15447266 51 12 C51.34426025 10.9490918 51.68852051 9.89818359 52.04321289 8.81542969 C53.65069133 5.11871736 55.03128226 2.75716379 58 0 C64.18099739 -2.00882903 71.05443885 -1.12064064 77.4375 -0.75 C79.2361507 -0.68975889 81.03499443 -0.63501425 82.83398438 -0.5859375 C87.22744149 -0.45413456 91.61159896 -0.24744833 96 0 C95.05408722 4.34560306 92.98583739 7.91067647 90.8125 11.75 C90.37252686 12.53439453 89.93255371 13.31878906 89.47924805 14.12695312 C84.66046661 22.67669872 79.69465199 31.14126301 74.734375 39.609375 C70.1985246 47.35831985 65.71737334 55.13851164 61.23754883 62.91992188 C60.07745201 64.93424408 58.91516208 66.9473051 57.75048828 68.95898438 C56.51259564 71.10949912 55.28830963 73.26787323 54.07373047 75.43164062 C53.13811279 77.08196289 53.13811279 77.08196289 52.18359375 78.765625 C51.6208374 79.76883789 51.05808105 80.77205078 50.47827148 81.80566406 C49.99044189 82.52979492 49.5026123 83.25392578 49 84 C48.34 84 47.68 84 47 84 C46.59386475 83.2879541 46.18772949 82.5759082 45.76928711 81.84228516 C33.32665379 60.03323508 20.82494232 38.25945178 8.1875 16.5625 C7.59437012 15.54317383 7.00124023 14.52384766 6.39013672 13.47363281 C5.84244629 12.53487305 5.29475586 11.59611328 4.73046875 10.62890625 C4.24989014 9.80463135 3.76931152 8.98035645 3.27416992 8.13110352 C2.23300282 6.38970715 1.12543875 4.68815812 0 3 C0 2.01 0 1.02 0 0 Z " fill="#39A072" transform="translate(0,6)"/>
<path d="M0 0 C1.97119141 -0.34057617 1.97119141 -0.34057617 4.3515625 -0.29296875 C5.62773438 -0.2784668 5.62773438 -0.2784668 6.9296875 -0.26367188 C7.81914063 -0.23853516 8.70859375 -0.21339844 9.625 -0.1875 C10.97078125 -0.16719727 10.97078125 -0.16719727 12.34375 -0.14648438 C14.56309789 -0.11106925 16.78125188 -0.06168461 19 0 C18.05408722 4.34560306 15.98583739 7.91067647 13.8125 11.75 C13.37252686 12.53439453 12.93255371 13.31878906 12.47924805 14.12695312 C7.66046661 22.67669872 2.69465199 31.14126301 -2.265625 39.609375 C-6.8014754 47.35831985 -11.28262666 55.13851164 -15.76245117 62.91992188 C-19.81747573 69.96082217 -23.89900393 76.98577495 -28 84 C-28.66 83.67 -29.32 83.34 -30 83 C-30.8875217 62.34856226 -30.0355138 47.33710405 -17.9140625 29.84912109 C-14.42542595 24.65621439 -11.41309919 19.18000395 -8.3125 13.75 C-7.14541295 11.7427608 -5.97511137 9.73738528 -4.80078125 7.734375 C-4.30747314 6.89100586 -3.81416504 6.04763672 -3.3059082 5.17871094 C-2.25301178 3.42211201 -1.13601607 1.70402411 0 0 Z " fill="#40B783" transform="translate(77,6)"/>
<path d="M0 0 C16.13667118 -1.37009472 16.13667118 -1.37009472 20.390625 1.7578125 C21.90889354 4.11512419 22.97411537 6.39392212 24 9 C24.77324416 10.32343713 25.56312521 11.6374032 26.375 12.9375 C28 16 28 16 28 18 C28.66 18 29.32 18 30 18 C30.27972656 17.14148438 30.55945313 16.28296875 30.84765625 15.3984375 C31.22792969 14.27695312 31.60820313 13.15546875 32 12 C32.52400391 10.41058594 32.52400391 10.41058594 33.05859375 8.7890625 C34.68434829 5.05857758 35.94710729 2.73199205 39 0 C45.18752852 -1.53307068 51.73763891 -0.67565934 58 0 C54.03682748 8.17031598 49.75277357 16.06396021 45.125 23.875 C43.8953634 25.96586953 42.66619478 28.05701437 41.4375 30.1484375 C40.8496875 31.14713867 40.261875 32.14583984 39.65625 33.17480469 C36.38572321 38.75359832 33.18916573 44.37439089 30 50 C29.34 50 28.68 50 28 50 C27.5781543 49.2565332 27.15630859 48.51306641 26.72167969 47.74707031 C24.73360165 44.24662906 22.74262028 40.74785701 20.75 37.25 C20.3905127 36.61862122 20.03102539 35.98724243 19.66064453 35.33673096 C14.39508972 26.09645764 9.03393179 16.9247172 3.45605469 7.86816406 C2.99618164 7.1150293 2.53630859 6.36189453 2.0625 5.5859375 C1.66160156 4.9367334 1.26070312 4.2875293 0.84765625 3.61865234 C0 2 0 2 0 0 Z " fill="#2E4052" transform="translate(19,6)"/>
<path d="M0 0 C6.27 0 12.54 0 19 0 C15.00871875 8.1645358 10.75608812 16.05836572 6.125 23.875 C4.8953634 25.96586953 3.66619478 28.05701437 2.4375 30.1484375 C1.55578125 31.64648926 1.55578125 31.64648926 0.65625 33.17480469 C-2.61427679 38.75359832 -5.81083427 44.37439089 -9 50 C-9.33 50 -9.66 50 -10 50 C-11.16621812 30.51159813 -11.79219325 16.50907054 0 0 Z " fill="#34495E" transform="translate(58,6)"/>
</svg>
