<?xml version="1.0" encoding="UTF-8"?>
<svg version="1.1" xmlns="http://www.w3.org/2000/svg" width="24" height="24">
<path d="M0 0 C1.62490954 -0.02698189 3.24994633 -0.04638757 4.875 -0.0625 C5.77992187 -0.07410156 6.68484375 -0.08570313 7.6171875 -0.09765625 C10 0 10 0 12 1 C12 1.66 12 2.32 12 3 C12.66 3 13.32 3 14 3 C14.12375 3.639375 14.2475 4.27875 14.375 4.9375 C14.58125 5.618125 14.7875 6.29875 15 7 C15.66 7.33 16.32 7.66 17 8 C17.0270043 9.45823212 17.04639787 10.91660675 17.0625 12.375 C17.07410156 13.18710938 17.08570312 13.99921875 17.09765625 14.8359375 C17 17 17 17 16 19 C15.34 19 14.68 19 14 19 C14 19.66 14 20.32 14 21 C13.360625 21.12375 12.72125 21.2475 12.0625 21.375 C11.381875 21.58125 10.70125 21.7875 10 22 C9.67 22.66 9.34 23.32 9 24 C6.03 24 3.06 24 0 24 C0 23.34 0 22.68 0 22 C-1.32 21.67 -2.64 21.34 -4 21 C-4 20.34 -4 19.68 -4 19 C-4.66 18.67 -5.32 18.34 -6 18 C-7.29721449 14.10835652 -7.13033993 11.10570774 -7 7 C-6.67 6.34 -6.34 5.68 -6 5 C-5.34 5 -4.68 5 -4 5 C-4 4.34 -4 3.68 -4 3 C-2.68 2.67 -1.36 2.34 0 2 C0 1.34 0 0.68 0 0 Z M2 4 C1.34 4.66 0.68 5.32 0 6 C3.3 6 6.6 6 10 6 C6.1490712 3.7018576 6.1490712 3.7018576 2 4 Z M-3 11 C-3 11.99 -3 12.98 -3 14 C-2.34 14 -1.68 14 -1 14 C-1 13.01 -1 12.02 -1 11 C-1.66 11 -2.32 11 -3 11 Z M10 11 C10.99 12.485 10.99 12.485 12 14 C12.33 13.01 12.66 12.02 13 11 C12.01 11 11.02 11 10 11 Z M6 16 C6 16.66 6 17.32 6 18 C4.68 18 3.36 18 2 18 C2 18.66 2 19.32 2 20 C3.98 20 5.96 20 8 20 C7.67 18.68 7.34 17.36 7 16 C6.67 16 6.34 16 6 16 Z " fill="#000000" transform="translate(7,0)"/>
</svg>
